<?xml version="1.0" encoding="UTF-8"?>
<svg xmlns="http://www.w3.org/2000/svg" xmlns:xlink="http://www.w3.org/1999/xlink" viewBox="0 0 50 50" width="50px" height="50px">
<g id="surface72037049">
<path style="fill-rule:nonzero;fill:rgb(94.509804%,76.862746%,5.882353%);fill-opacity:1;stroke-width:8;stroke-linecap:butt;stroke-linejoin:round;stroke:rgb(77.64706%,47.843137%,0%);stroke-opacity:1;stroke-miterlimit:10;" d="M 156.631216 10.63193 L 144.529032 146.257915 C 144.402528 147.677567 143.418611 148.872324 142.041126 149.251835 L 86.927696 164.994514 C 86.618465 165.078849 86.295178 165.121017 85.985947 165.121017 C 85.66266 165.121017 85.339372 165.078849 85.030141 164.994514 L 29.958879 149.251835 C 28.595451 148.872324 27.611533 147.677567 27.48503 146.257915 L 15.36879 10.63193 C 15.284454 9.662069 15.607741 8.706263 16.254315 8.003465 C 16.914946 7.286611 17.828583 6.878988 18.798445 6.878988 L 153.201561 6.878988 C 154.171422 6.878988 155.08506 7.286611 155.74569 8.003465 C 156.392264 8.706263 156.715551 9.662069 156.631216 10.63193 Z M 41.273929 116.782561 L 79.126637 127.282365 L 79.126637 37.844274 L 65.365849 37.844274 L 65.365849 106.451429 L 41.273929 99.774846 Z M 106.634156 79.126637 L 106.634156 51.605062 L 132.97503 51.605062 L 134.155731 37.844274 L 92.873369 37.844274 L 92.873369 96.317079 L 116.965289 92.17057 L 116.093819 105.073944 L 92.873369 111.455351 L 92.873369 127.282365 L 127.282365 117.822702 L 130.908804 75.682926 Z M 106.634156 79.126637 " transform="matrix(0.277907,0,0,0.277907,1.1,1.1)"/>
<path style=" stroke:none;fill-rule:nonzero;fill:rgb(94.509804%,76.862746%,5.882353%);fill-opacity:1;" d="M 44.382812 3.324219 C 44.199219 3.125 43.945312 3.011719 43.675781 3.011719 L 6.324219 3.011719 C 6.054688 3.011719 5.800781 3.125 5.617188 3.324219 C 5.4375 3.519531 5.347656 3.785156 5.371094 4.054688 L 8.738281 41.746094 C 8.773438 42.140625 9.046875 42.472656 9.425781 42.578125 L 24.730469 46.953125 C 24.816406 46.976562 24.90625 46.988281 24.996094 46.988281 C 25.082031 46.988281 25.171875 46.976562 25.257812 46.953125 L 40.574219 42.578125 C 40.957031 42.472656 41.230469 42.140625 41.265625 41.746094 L 44.628906 4.054688 C 44.652344 3.785156 44.5625 3.519531 44.382812 3.324219 Z M 12.570312 28.828125 L 19.265625 30.683594 L 19.265625 11.617188 L 23.089844 11.617188 L 23.089844 36.472656 L 12.570312 33.554688 Z M 37.480469 22.132812 L 36.472656 33.84375 L 26.910156 36.472656 L 26.910156 32.074219 L 33.363281 30.300781 L 33.605469 26.714844 L 26.910156 27.867188 L 26.910156 11.617188 L 38.382812 11.617188 L 38.054688 15.441406 L 30.734375 15.441406 L 30.734375 23.089844 Z M 37.480469 22.132812 "/>
</g>
</svg>
